<svg xmlns="http://www.w3.org/2000/svg" viewBox="0 0 96 96" role="img" aria-labelledby="title desc">
  <title id="title">PetAlberni cedar companion logo concept</title>
  <desc id="desc">Cedar tree silhouette with small pet-ear details and warm local colours.</desc>
  <rect width="96" height="96" rx="24" fill="#F8F2E6"/>
  <path d="M48 18 29 51h11L25 74h46L56 51h11L48 18Z" fill="#2E6F62"/>
  <path d="M48 42c-7 0-13 5-13 12 0 8 6 14 13 14s13-6 13-14c0-7-6-12-13-12Z" fill="#F8F2E6"/>
  <path d="M39 45 35 37l10 5M57 45l4-8-10 5" fill="#F8F2E6" stroke="#F8F2E6" stroke-width="2" stroke-linejoin="round"/>
  <circle cx="43" cy="54" r="2" fill="#2E6F62"/>
  <circle cx="53" cy="54" r="2" fill="#2E6F62"/>
  <path d="M48 58v7" stroke="#2E6F62" stroke-width="3" stroke-linecap="round"/>
</svg>
