<svg xmlns="http://www.w3.org/2000/svg" viewBox="0 0 96 96" role="img" aria-labelledby="title desc">
  <title id="title">PetAlberni Mountain Paw refined logo - ocean and green</title>
  <desc id="desc">A bright ocean blue badge with a fresh green valley and simplified paw print.</desc>
  <rect width="96" height="96" rx="24" fill="#EAF7F6"/>
  <path d="M16 57 35 30c1.4-2 4.2-2 5.7 0L50 43l6.9-8.2c1.5-1.8 4.2-1.8 5.7 0L80 57H16Z" fill="#147E9A"/>
  <path d="M16 57c10.2 6.7 21 10.1 32 10.1S69.8 63.7 80 57v11.2c-8.9 6.4-19.6 9.6-32 9.6s-23.1-3.2-32-9.6V57Z" fill="#6CC58A"/>
  <path d="M38 61.2c0-5.5 4.5-10 10-10s10 4.5 10 10c0 6.2-4.5 9.7-10 9.7s-10-3.5-10-9.7Z" fill="#FFFFFF"/>
  <circle cx="34.2" cy="56.6" r="4.1" fill="#FFFFFF"/>
  <circle cx="43.5" cy="51.5" r="4.1" fill="#FFFFFF"/>
  <circle cx="52.5" cy="51.5" r="4.1" fill="#FFFFFF"/>
  <circle cx="61.8" cy="56.6" r="4.1" fill="#FFFFFF"/>
</svg>
