<svg xmlns="http://www.w3.org/2000/svg" viewBox="0 0 96 96" role="img" aria-labelledby="title desc">
  <title id="title">PetAlberni Mountain Paw refined logo - harbour sunset</title>
  <desc id="desc">A warm harbour-inspired badge with teal mountains, coral accent, and simplified pet paw.</desc>
  <rect width="96" height="96" rx="26" fill="#FFF3E8"/>
  <path d="M16 57 35 31.5c1.5-2 4.5-2 6 0L50 44.2l7.1-8.8c1.5-1.9 4.3-1.9 5.8 0L80 57H16Z" fill="#136F75"/>
  <path d="M16 57c8.7 6.3 19.4 9.5 32 9.5S71.3 63.3 80 57v11.3c-8.1 6.3-18.8 9.4-32 9.4s-23.9-3.1-32-9.4V57Z" fill="#F4A261"/>
  <path d="M37.9 61.5c0-5.7 4.5-10.2 10.1-10.2s10.1 4.5 10.1 10.2c0 6.1-4.6 9.6-10.1 9.6s-10.1-3.5-10.1-9.6Z" fill="#FFEBC8"/>
  <circle cx="34.4" cy="56.9" r="4.2" fill="#FFEBC8"/>
  <circle cx="43.6" cy="51.8" r="4.2" fill="#FFEBC8"/>
  <circle cx="52.4" cy="51.8" r="4.2" fill="#FFEBC8"/>
  <circle cx="61.6" cy="56.9" r="4.2" fill="#FFEBC8"/>
</svg>
